<svg xmlns="http://www.w3.org/2000/svg" xmlns:xlink="http://www.w3.org/1999/xlink" width="512px" height="512px">
	<rect width="100%" height="100%" fill="teal" />
	<g transform="scale(3.2), translate(16, 47)">
		<path fill="white" d="M 3 52 L 1 37 L 36 37 L 36 29 L 6 29 L 6 28 L 36 28 L 36 21 L 41 15 L 41 14 L 39 14 L 36 13 L 36 12 L 79 12 L 70 1 L 71 1 L 80 12 L 86 12 L 88 14 L 84 14 L 96 28 L 100 28 L 102 30 L 99 30 L 105 37 L 122 37 L 122 38 L 121 38 L 118 40 L 116 42 L 114 44 L 112 46 L 110 48 L 108 49 L 104 50 L 93 51 L 74 52 L 3 52 M 45 14 L 45 21 L 50 21 L 50 14 L 45 14 M 51 14 L 51 21 L 56 21 L 56 14 L 51 14 M 57 14 L 57 21 L 63 21 L 63 14 L 57 14 M 64 14 L 64 21 L 69 21 L 69 14 L 64 14 M 70 14 L 70 21 L 75 21 L 75 14 L 70 14 M 76 14 L 76 21 L 83 21 L 83 20 L 78 14 L 76 14 M 79 14 L 85 21 L 89 21 L 83 14 L 79 14 M 38 30 L 38 37 L 44 37 L 44 30 L 38 30 M 45 30 L 45 37 L 50 37 L 50 30 L 45 30 M 51 30 L 51 37 L 56 37 L 56 30 L 51 30 M 57 30 L 57 37 L 63 37 L 63 30 L 57 30 M 64 30 L 64 37 L 69 37 L 69 30 L 64 30 M 70 30 L 70 37 L 75 37 L 75 30 L 70 30 M 76 30 L 76 37 L 82 37 L 82 30 L 76 30 M 83 30 L 83 37 L 88 37 L 88 30 L 83 30 M 89 30 L 89 37 L 97 37 L 97 36 L 92 30 L 89 30 M 93 30 L 99 37 L 104 37 L 98 30 L 93 30" />
	</g>
</svg>
